<svg width="1200" height="430" viewBox="0 0 1200 430" fill="none" xmlns="http://www.w3.org/2000/svg">
<defs>
  <linearGradient id="bg" x1="40" y1="0" x2="1160" y2="430" gradientUnits="userSpaceOnUse">
    <stop stop-color="#050A14"/>
    <stop offset="0.55" stop-color="#081426"/>
    <stop offset="1" stop-color="#0D1320"/>
  </linearGradient>
  <linearGradient id="brand" x1="96" y1="122" x2="650" y2="296" gradientUnits="userSpaceOnUse">
    <stop stop-color="#67E8F9"/>
    <stop offset="0.48" stop-color="#38BDF8"/>
    <stop offset="1" stop-color="#A78BFA"/>
  </linearGradient>
  <linearGradient id="orbit" x1="780" y1="74" x2="1105" y2="358" gradientUnits="userSpaceOnUse">
    <stop stop-color="#38BDF8"/>
    <stop offset="0.48" stop-color="#A78BFA"/>
    <stop offset="1" stop-color="#FB923C"/>
  </linearGradient>
  <radialGradient id="glow" cx="0" cy="0" r="1" gradientTransform="translate(931 215) rotate(90) scale(194)">
    <stop stop-color="#38BDF8" stop-opacity=".18"/>
    <stop offset="1" stop-color="#38BDF8" stop-opacity="0"/>
  </radialGradient>
  <pattern id="grid" width="36" height="36" patternUnits="userSpaceOnUse">
    <path d="M36 0H0V36" stroke="#1E293B" stroke-width="1"/>
  </pattern>
  <filter id="softGlow" x="-70%" y="-70%" width="240%" height="240%">
    <feGaussianBlur stdDeviation="8" result="b"/>
    <feMerge><feMergeNode in="b"/><feMergeNode in="SourceGraphic"/></feMerge>
  </filter>
  <filter id="shadow" x="-30%" y="-30%" width="160%" height="160%">
    <feDropShadow dx="0" dy="12" stdDeviation="18" flood-color="#000000" flood-opacity=".38"/>
  </filter>
</defs>

<rect width="1200" height="430" rx="28" fill="url(#bg)"/>
<rect width="1200" height="430" rx="28" fill="url(#grid)" opacity=".38"/>
<ellipse cx="930" cy="215" rx="255" ry="215" fill="url(#glow)"/>
<rect x="1.5" y="1.5" width="1197" height="427" rx="26.5" stroke="#243247" stroke-width="3"/>

<g opacity=".95">
  <circle cx="52" cy="42" r="6" fill="#FB7185"/>
  <circle cx="73" cy="42" r="6" fill="#FBBF24"/>
  <circle cx="94" cy="42" r="6" fill="#34D399"/>
  <text x="121" y="49" fill="#64748B" font-family="JetBrains Mono, monospace" font-size="15">ved@portfolio:~/build</text>
  <text x="1067" y="49" fill="#475569" font-family="JetBrains Mono, monospace" font-size="13">STATUS: ONLINE</text>
</g>

<text x="72" y="120" fill="#7DD3FC" font-family="JetBrains Mono, monospace" font-size="17" letter-spacing="4">AI • FULL-STACK • PRODUCT</text>
<text x="68" y="209" fill="url(#brand)" font-family="Inter, Arial, sans-serif" font-size="86" font-weight="850" letter-spacing="-2">VED PATEL</text>
<text x="73" y="255" fill="#E2E8F0" font-family="Inter, Arial, sans-serif" font-size="25" font-weight="600">I build practical software that turns complex problems</text>
<text x="73" y="289" fill="#94A3B8" font-family="Inter, Arial, sans-serif" font-size="22">into clear, useful products people can actually use.</text>

<g font-family="JetBrains Mono, monospace" font-size="14">
  <g transform="translate(72 326)">
    <rect width="164" height="40" rx="20" fill="#0B1D30" stroke="#1D4ED8" stroke-opacity=".7"/>
    <circle cx="21" cy="20" r="5" fill="#38BDF8"/>
    <text x="36" y="25" fill="#BAE6FD">Toronto, Canada</text>
  </g>
  <g transform="translate(249 326)">
    <rect width="207" height="40" rx="20" fill="#15142A" stroke="#7C3AED" stroke-opacity=".65"/>
    <circle cx="21" cy="20" r="5" fill="#A78BFA"/>
    <text x="36" y="25" fill="#DDD6FE">Computer Engineering</text>
  </g>
  <g transform="translate(469 326)">
    <rect width="184" height="40" rx="20" fill="#102019" stroke="#16A34A" stroke-opacity=".65"/>
    <circle cx="21" cy="20" r="5" fill="#34D399">
      <animate attributeName="opacity" values=".35;1;.35" dur="1.8s" repeatCount="indefinite"/>
    </circle>
    <text x="36" y="25" fill="#BBF7D0">Building in public</text>
  </g>
</g>

<g transform="translate(925 219)" filter="url(#shadow)">
  <circle r="142" stroke="url(#orbit)" stroke-width="2" stroke-dasharray="8 10" opacity=".68">
    <animateTransform attributeName="transform" type="rotate" from="0" to="360" dur="28s" repeatCount="indefinite"/>
  </circle>
  <circle r="105" stroke="#334155" stroke-width="1.5" stroke-dasharray="3 7">
    <animateTransform attributeName="transform" type="rotate" from="360" to="0" dur="20s" repeatCount="indefinite"/>
  </circle>
  <circle r="74" fill="#08111F" stroke="url(#orbit)" stroke-width="3" filter="url(#softGlow)"/>
  <text x="0" y="24" text-anchor="middle" fill="url(#brand)" font-family="Inter, Arial, sans-serif" font-size="66" font-weight="850" letter-spacing="-5">VP</text>
  <g>
    <circle cx="0" cy="-142" r="8" fill="#38BDF8"/>
    <circle cx="135" cy="44" r="8" fill="#A78BFA"/>
    <circle cx="-83" cy="115" r="8" fill="#FB923C"/>
  </g>
</g>

<g font-family="JetBrains Mono, monospace" font-size="13">
  <g transform="translate(775 88)">
    <rect width="116" height="34" rx="8" fill="#071522" stroke="#164E63"/>
    <text x="16" y="22" fill="#67E8F9">AI SYSTEMS</text>
  </g>
  <path d="M891 105H925V77" stroke="#164E63" stroke-width="2"/>
  <g transform="translate(1002 87)">
    <rect width="128" height="34" rx="8" fill="#151125" stroke="#5B21B6"/>
    <text x="15" y="22" fill="#C4B5FD">FULL STACK</text>
  </g>
  <path d="M1002 104H976V82" stroke="#5B21B6" stroke-width="2"/>
  <g transform="translate(1011 322)">
    <rect width="121" height="34" rx="8" fill="#1D130B" stroke="#9A3412"/>
    <text x="15" y="22" fill="#FDBA74">SHIP FAST</text>
  </g>
  <path d="M1011 339H982V356" stroke="#9A3412" stroke-width="2"/>
</g>

<rect x="703" y="62" width="456" height="2" fill="#38BDF8" opacity=".28">
  <animate attributeName="y" values="62;384;62" dur="7s" repeatCount="indefinite"/>
  <animate attributeName="opacity" values="0;.35;0" dur="7s" repeatCount="indefinite"/>
</rect>

<text x="72" y="402" fill="#334155" font-family="JetBrains Mono, monospace" font-size="12">DESIGNING • ENGINEERING • TESTING • DEPLOYING</text>
</svg>